<svg xmlns="http://www.w3.org/2000/svg" viewBox="0 0 40 28" width="320" height="224" shape-rendering="crispEdges"><title>cat, starving</title><style>.tw{animation:tw 1s steps(1) infinite}.tw2{animation-delay:-.5s}@keyframes tw{50%{opacity:.25}}@media (prefers-reduced-motion:reduce){*{animation:none!important}}</style><rect width="40" height="28" rx="2" fill="#2e2b33"/><rect y="23" width="40" height="5" fill="#38343e"/><rect x="3" y="22" width="1" height="1" fill="#4e4957"/><rect x="4" y="21" width="1" height="2" fill="#4e4957"/><rect x="12" y="22" width="1" height="1" fill="#4e4957"/><rect x="13" y="21" width="1" height="2" fill="#4e4957"/><rect x="30" y="22" width="1" height="1" fill="#4e4957"/><rect x="31" y="21" width="1" height="2" fill="#4e4957"/><rect x="35" y="22" width="1" height="1" fill="#4e4957"/><rect x="36" y="21" width="1" height="2" fill="#4e4957"/><rect x="12" y="23" width="16" height="1" fill="#2d2433" opacity=".18"/><g class="bob"><g><rect x="12" y="4" width="1" height="1" fill="#2d2433"/><rect x="23" y="4" width="1" height="1" fill="#2d2433"/><rect x="11" y="5" width="1" height="1" fill="#2d2433"/><rect x="12" y="5" width="1" height="1" fill="#c6b2a0"/><rect x="13" y="5" width="1" height="1" fill="#2d2433"/><rect x="22" y="5" width="1" height="1" fill="#2d2433"/><rect x="23" y="5" width="1" height="1" fill="#c6b2a0"/><rect x="24" y="5" width="1" height="1" fill="#2d2433"/><rect x="11" y="6" width="1" height="1" fill="#2d2433"/><rect x="12" y="6" width="2" height="1" fill="#c6b2a0"/><rect x="14" y="6" width="1" height="1" fill="#2d2433"/><rect x="17" y="6" width="2" height="1" fill="#2d2433"/><rect x="21" y="6" width="1" height="1" fill="#2d2433"/><rect x="22" y="6" width="2" height="1" fill="#c6b2a0"/><rect x="24" y="6" width="1" height="1" fill="#2d2433"/><rect x="11" y="7" width="1" height="1" fill="#2d2433"/><rect x="12" y="7" width="1" height="1" fill="#c6b2a0"/><rect x="13" y="7" width="1" height="1" fill="#d8c5c9"/><rect x="14" y="7" width="1" height="1" fill="#c6b2a0"/><rect x="15" y="7" width="2" height="1" fill="#2d2433"/><rect x="17" y="7" width="2" height="1" fill="#a18975"/><rect x="19" y="7" width="2" height="1" fill="#2d2433"/><rect x="21" y="7" width="1" height="1" fill="#c6b2a0"/><rect x="22" y="7" width="1" height="1" fill="#d8c5c9"/><rect x="23" y="7" width="1" height="1" fill="#c6b2a0"/><rect x="24" y="7" width="1" height="1" fill="#2d2433"/><rect x="11" y="8" width="1" height="1" fill="#2d2433"/><rect x="12" y="8" width="1" height="1" fill="#c6b2a0"/><rect x="13" y="8" width="2" height="1" fill="#d8c5c9"/><rect x="15" y="8" width="2" height="1" fill="#c6b2a0"/><rect x="17" y="8" width="2" height="1" fill="#a18975"/><rect x="19" y="8" width="2" height="1" fill="#c6b2a0"/><rect x="21" y="8" width="2" height="1" fill="#d8c5c9"/><rect x="23" y="8" width="1" height="1" fill="#c6b2a0"/><rect x="24" y="8" width="1" height="1" fill="#2d2433"/><rect x="10" y="9" width="1" height="1" fill="#2d2433"/><rect x="11" y="9" width="14" height="1" fill="#c6b2a0"/><rect x="25" y="9" width="1" height="1" fill="#2d2433"/><rect x="10" y="10" width="1" height="1" fill="#2d2433"/><rect x="11" y="10" width="14" height="1" fill="#c6b2a0"/><rect x="25" y="10" width="1" height="1" fill="#2d2433"/><rect x="9" y="11" width="1" height="1" fill="#2d2433"/><rect x="10" y="11" width="1" height="1" fill="#a18975"/><rect x="11" y="11" width="14" height="1" fill="#c6b2a0"/><rect x="25" y="11" width="1" height="1" fill="#a18975"/><rect x="26" y="11" width="1" height="1" fill="#2d2433"/><rect x="10" y="12" width="1" height="1" fill="#2d2433"/><rect x="11" y="12" width="14" height="1" fill="#c6b2a0"/><rect x="25" y="12" width="1" height="1" fill="#2d2433"/><rect x="9" y="13" width="1" height="1" fill="#2d2433"/><rect x="10" y="13" width="1" height="1" fill="#a18975"/><rect x="11" y="13" width="3" height="1" fill="#c6b2a0"/><rect x="14" y="13" width="8" height="1" fill="#f5f2ec"/><rect x="22" y="13" width="3" height="1" fill="#c6b2a0"/><rect x="25" y="13" width="1" height="1" fill="#a18975"/><rect x="26" y="13" width="1" height="1" fill="#2d2433"/><rect x="10" y="14" width="1" height="1" fill="#2d2433"/><rect x="11" y="14" width="2" height="1" fill="#c6b2a0"/><rect x="13" y="14" width="10" height="1" fill="#f5f2ec"/><rect x="23" y="14" width="2" height="1" fill="#c6b2a0"/><rect x="25" y="14" width="1" height="1" fill="#2d2433"/><rect x="11" y="15" width="1" height="1" fill="#2d2433"/><rect x="12" y="15" width="2" height="1" fill="#c6b2a0"/><rect x="14" y="15" width="8" height="1" fill="#f5f2ec"/><rect x="22" y="15" width="2" height="1" fill="#c6b2a0"/><rect x="24" y="15" width="1" height="1" fill="#2d2433"/><rect x="27" y="15" width="2" height="1" fill="#2d2433"/><rect x="11" y="16" width="1" height="1" fill="#2d2433"/><rect x="12" y="16" width="3" height="1" fill="#c6b2a0"/><rect x="15" y="16" width="6" height="1" fill="#f5f2ec"/><rect x="21" y="16" width="3" height="1" fill="#c6b2a0"/><rect x="24" y="16" width="1" height="1" fill="#2d2433"/><rect x="26" y="16" width="1" height="1" fill="#2d2433"/><rect x="27" y="16" width="2" height="1" fill="#c6b2a0"/><rect x="29" y="16" width="1" height="1" fill="#2d2433"/><rect x="10" y="17" width="1" height="1" fill="#2d2433"/><rect x="11" y="17" width="4" height="1" fill="#c6b2a0"/><rect x="15" y="17" width="6" height="1" fill="#f5f2ec"/><rect x="21" y="17" width="4" height="1" fill="#c6b2a0"/><rect x="25" y="17" width="2" height="1" fill="#2d2433"/><rect x="27" y="17" width="2" height="1" fill="#c6b2a0"/><rect x="29" y="17" width="1" height="1" fill="#2d2433"/><rect x="10" y="18" width="1" height="1" fill="#2d2433"/><rect x="11" y="18" width="1" height="1" fill="#c6b2a0"/><rect x="12" y="18" width="1" height="1" fill="#a18975"/><rect x="13" y="18" width="2" height="1" fill="#c6b2a0"/><rect x="15" y="18" width="6" height="1" fill="#f5f2ec"/><rect x="21" y="18" width="2" height="1" fill="#c6b2a0"/><rect x="23" y="18" width="1" height="1" fill="#a18975"/><rect x="24" y="18" width="1" height="1" fill="#c6b2a0"/><rect x="25" y="18" width="2" height="1" fill="#2d2433"/><rect x="27" y="18" width="1" height="1" fill="#a18975"/><rect x="28" y="18" width="1" height="1" fill="#c6b2a0"/><rect x="29" y="18" width="1" height="1" fill="#2d2433"/><rect x="10" y="19" width="1" height="1" fill="#2d2433"/><rect x="11" y="19" width="4" height="1" fill="#c6b2a0"/><rect x="15" y="19" width="6" height="1" fill="#f5f2ec"/><rect x="21" y="19" width="4" height="1" fill="#c6b2a0"/><rect x="25" y="19" width="1" height="1" fill="#2d2433"/><rect x="26" y="19" width="2" height="1" fill="#c6b2a0"/><rect x="28" y="19" width="1" height="1" fill="#2d2433"/><rect x="10" y="20" width="1" height="1" fill="#2d2433"/><rect x="11" y="20" width="1" height="1" fill="#c6b2a0"/><rect x="12" y="20" width="1" height="1" fill="#a18975"/><rect x="13" y="20" width="2" height="1" fill="#c6b2a0"/><rect x="15" y="20" width="6" height="1" fill="#f5f2ec"/><rect x="21" y="20" width="2" height="1" fill="#c6b2a0"/><rect x="23" y="20" width="1" height="1" fill="#a18975"/><rect x="24" y="20" width="3" height="1" fill="#c6b2a0"/><rect x="27" y="20" width="1" height="1" fill="#2d2433"/><rect x="10" y="21" width="1" height="1" fill="#2d2433"/><rect x="11" y="21" width="16" height="1" fill="#c6b2a0"/><rect x="27" y="21" width="1" height="1" fill="#2d2433"/><rect x="11" y="22" width="1" height="1" fill="#2d2433"/><rect x="12" y="22" width="3" height="1" fill="#f5f2ec"/><rect x="15" y="22" width="1" height="1" fill="#2d2433"/><rect x="16" y="22" width="6" height="1" fill="#c6b2a0"/><rect x="22" y="22" width="1" height="1" fill="#2d2433"/><rect x="23" y="22" width="3" height="1" fill="#f5f2ec"/><rect x="26" y="22" width="1" height="1" fill="#2d2433"/><rect x="12" y="23" width="3" height="1" fill="#2d2433"/><rect x="16" y="23" width="6" height="1" fill="#2d2433"/><rect x="23" y="23" width="3" height="1" fill="#2d2433"/></g><g><rect x="16" y="14" width="1" height="1" fill="#2d2433"/><rect x="18" y="14" width="1" height="1" fill="#2d2433"/><rect x="17" y="15" width="1" height="1" fill="#2d2433"/><rect x="19" y="15" width="1" height="1" fill="#2d2433"/></g><g><rect x="14" y="11" width="1" height="1" fill="#2d2433"/><rect x="16" y="11" width="1" height="1" fill="#2d2433"/><rect x="20" y="11" width="1" height="1" fill="#2d2433"/><rect x="22" y="11" width="1" height="1" fill="#2d2433"/><rect x="15" y="12" width="1" height="1" fill="#2d2433"/><rect x="21" y="12" width="1" height="1" fill="#2d2433"/><rect x="14" y="13" width="1" height="1" fill="#2d2433"/><rect x="16" y="13" width="1" height="1" fill="#2d2433"/><rect x="20" y="13" width="1" height="1" fill="#2d2433"/><rect x="22" y="13" width="1" height="1" fill="#2d2433"/></g></g><g class="tw"><rect x="28" y="0" width="3" height="1" fill="#cbcccf"/><rect x="27" y="1" width="7" height="1" fill="#cbcccf"/><rect x="26" y="2" width="9" height="1" fill="#cbcccf"/><rect x="27" y="3" width="7" height="1" fill="#9d9ea2"/><rect x="28" y="4" width="1" height="1" fill="#b6c7d2"/><rect x="32" y="4" width="1" height="1" fill="#b6c7d2"/><rect x="30" y="5" width="1" height="1" fill="#b6c7d2"/></g></svg>
