<svg xmlns="http://www.w3.org/2000/svg" viewBox="0 0 40 28" width="320" height="224" shape-rendering="crispEdges"><title>crab, hungry</title><style>.bob{animation:rumble 3s steps(1) infinite}@keyframes rumble{80%{transform:translateX(-1px)}84%{transform:translateX(1px)}88%{transform:translateX(-1px)}92%{transform:none}}.open{animation:open 4s steps(1) infinite}@keyframes open{92%{opacity:0}97%{opacity:1}}.shut{opacity:0;animation:shut 4s steps(1) infinite}@keyframes shut{92%{opacity:1}97%{opacity:0}}.tw{animation:tw 1s steps(1) infinite}.tw2{animation-delay:-.5s}@keyframes tw{50%{opacity:.25}}@media (prefers-reduced-motion:reduce){*{animation:none!important}}</style><rect width="40" height="28" rx="2" fill="#3a2d27"/><rect y="23" width="40" height="5" fill="#4a3830"/><rect x="3" y="22" width="1" height="1" fill="#664c40"/><rect x="4" y="21" width="1" height="2" fill="#664c40"/><rect x="12" y="22" width="1" height="1" fill="#664c40"/><rect x="13" y="21" width="1" height="2" fill="#664c40"/><rect x="30" y="22" width="1" height="1" fill="#664c40"/><rect x="31" y="21" width="1" height="2" fill="#664c40"/><rect x="35" y="22" width="1" height="1" fill="#664c40"/><rect x="36" y="21" width="1" height="2" fill="#664c40"/><rect x="9" y="23" width="22" height="1" fill="#2d2433" opacity=".18"/><g class="bob"><g><rect x="8" y="8" width="2" height="1" fill="#2d2433"/><rect x="11" y="8" width="2" height="1" fill="#2d2433"/><rect x="27" y="8" width="2" height="1" fill="#2d2433"/><rect x="30" y="8" width="2" height="1" fill="#2d2433"/><rect x="7" y="9" width="1" height="1" fill="#2d2433"/><rect x="8" y="9" width="2" height="1" fill="#e67f71"/><rect x="10" y="9" width="1" height="1" fill="#2d2433"/><rect x="11" y="9" width="2" height="1" fill="#e67f71"/><rect x="13" y="9" width="1" height="1" fill="#2d2433"/><rect x="26" y="9" width="1" height="1" fill="#2d2433"/><rect x="27" y="9" width="2" height="1" fill="#e67f71"/><rect x="29" y="9" width="1" height="1" fill="#2d2433"/><rect x="30" y="9" width="2" height="1" fill="#e67f71"/><rect x="32" y="9" width="1" height="1" fill="#2d2433"/><rect x="7" y="10" width="1" height="1" fill="#2d2433"/><rect x="8" y="10" width="2" height="1" fill="#e67f71"/><rect x="10" y="10" width="1" height="1" fill="#2d2433"/><rect x="11" y="10" width="2" height="1" fill="#e67f71"/><rect x="13" y="10" width="1" height="1" fill="#2d2433"/><rect x="26" y="10" width="1" height="1" fill="#2d2433"/><rect x="27" y="10" width="2" height="1" fill="#e67f71"/><rect x="29" y="10" width="1" height="1" fill="#2d2433"/><rect x="30" y="10" width="2" height="1" fill="#e67f71"/><rect x="32" y="10" width="1" height="1" fill="#2d2433"/><rect x="7" y="11" width="1" height="1" fill="#2d2433"/><rect x="8" y="11" width="5" height="1" fill="#e67f71"/><rect x="13" y="11" width="1" height="1" fill="#2d2433"/><rect x="26" y="11" width="1" height="1" fill="#2d2433"/><rect x="27" y="11" width="5" height="1" fill="#e67f71"/><rect x="32" y="11" width="1" height="1" fill="#2d2433"/><rect x="8" y="12" width="1" height="1" fill="#2d2433"/><rect x="9" y="12" width="3" height="1" fill="#e67f71"/><rect x="12" y="12" width="1" height="1" fill="#2d2433"/><rect x="18" y="12" width="4" height="1" fill="#2d2433"/><rect x="27" y="12" width="1" height="1" fill="#2d2433"/><rect x="28" y="12" width="3" height="1" fill="#e67f71"/><rect x="31" y="12" width="1" height="1" fill="#2d2433"/><rect x="9" y="13" width="1" height="1" fill="#2d2433"/><rect x="10" y="13" width="1" height="1" fill="#e67f71"/><rect x="11" y="13" width="1" height="1" fill="#2d2433"/><rect x="16" y="13" width="2" height="1" fill="#2d2433"/><rect x="18" y="13" width="2" height="1" fill="#f4c6bc"/><rect x="20" y="13" width="2" height="1" fill="#e67f71"/><rect x="22" y="13" width="3" height="1" fill="#2d2433"/><rect x="28" y="13" width="1" height="1" fill="#2d2433"/><rect x="29" y="13" width="1" height="1" fill="#e67f71"/><rect x="30" y="13" width="1" height="1" fill="#2d2433"/><rect x="9" y="14" width="1" height="1" fill="#2d2433"/><rect x="10" y="14" width="1" height="1" fill="#e67f71"/><rect x="11" y="14" width="1" height="1" fill="#2d2433"/><rect x="14" y="14" width="2" height="1" fill="#2d2433"/><rect x="16" y="14" width="2" height="1" fill="#e67f71"/><rect x="18" y="14" width="2" height="1" fill="#f4c6bc"/><rect x="20" y="14" width="5" height="1" fill="#e67f71"/><rect x="25" y="14" width="2" height="1" fill="#2d2433"/><rect x="28" y="14" width="1" height="1" fill="#2d2433"/><rect x="29" y="14" width="1" height="1" fill="#e67f71"/><rect x="30" y="14" width="1" height="1" fill="#2d2433"/><rect x="9" y="15" width="1" height="1" fill="#2d2433"/><rect x="10" y="15" width="2" height="1" fill="#e67f71"/><rect x="12" y="15" width="2" height="1" fill="#2d2433"/><rect x="14" y="15" width="13" height="1" fill="#e67f71"/><rect x="27" y="15" width="1" height="1" fill="#2d2433"/><rect x="28" y="15" width="2" height="1" fill="#e67f71"/><rect x="30" y="15" width="1" height="1" fill="#2d2433"/><rect x="10" y="16" width="1" height="1" fill="#2d2433"/><rect x="11" y="16" width="18" height="1" fill="#e67f71"/><rect x="29" y="16" width="1" height="1" fill="#2d2433"/><rect x="11" y="17" width="2" height="1" fill="#2d2433"/><rect x="13" y="17" width="14" height="1" fill="#e67f71"/><rect x="27" y="17" width="2" height="1" fill="#2d2433"/><rect x="12" y="18" width="1" height="1" fill="#2d2433"/><rect x="13" y="18" width="14" height="1" fill="#e67f71"/><rect x="27" y="18" width="1" height="1" fill="#2d2433"/><rect x="12" y="19" width="1" height="1" fill="#2d2433"/><rect x="13" y="19" width="14" height="1" fill="#e67f71"/><rect x="27" y="19" width="1" height="1" fill="#2d2433"/><rect x="13" y="20" width="1" height="1" fill="#2d2433"/><rect x="14" y="20" width="12" height="1" fill="#bf5249"/><rect x="26" y="20" width="1" height="1" fill="#2d2433"/><rect x="12" y="21" width="1" height="1" fill="#2d2433"/><rect x="13" y="21" width="1" height="1" fill="#bf5249"/><rect x="14" y="21" width="1" height="1" fill="#2d2433"/><rect x="15" y="21" width="1" height="1" fill="#bf5249"/><rect x="16" y="21" width="1" height="1" fill="#2d2433"/><rect x="17" y="21" width="1" height="1" fill="#bf5249"/><rect x="18" y="21" width="4" height="1" fill="#2d2433"/><rect x="22" y="21" width="1" height="1" fill="#bf5249"/><rect x="23" y="21" width="1" height="1" fill="#2d2433"/><rect x="24" y="21" width="1" height="1" fill="#bf5249"/><rect x="25" y="21" width="1" height="1" fill="#2d2433"/><rect x="26" y="21" width="1" height="1" fill="#bf5249"/><rect x="27" y="21" width="1" height="1" fill="#2d2433"/><rect x="11" y="22" width="1" height="1" fill="#2d2433"/><rect x="12" y="22" width="1" height="1" fill="#bf5249"/><rect x="13" y="22" width="1" height="1" fill="#2d2433"/><rect x="14" y="22" width="1" height="1" fill="#bf5249"/><rect x="15" y="22" width="1" height="1" fill="#2d2433"/><rect x="16" y="22" width="1" height="1" fill="#bf5249"/><rect x="17" y="22" width="1" height="1" fill="#2d2433"/><rect x="22" y="22" width="1" height="1" fill="#2d2433"/><rect x="23" y="22" width="1" height="1" fill="#bf5249"/><rect x="24" y="22" width="1" height="1" fill="#2d2433"/><rect x="25" y="22" width="1" height="1" fill="#bf5249"/><rect x="26" y="22" width="1" height="1" fill="#2d2433"/><rect x="27" y="22" width="1" height="1" fill="#bf5249"/><rect x="28" y="22" width="1" height="1" fill="#2d2433"/><rect x="12" y="23" width="1" height="1" fill="#2d2433"/><rect x="14" y="23" width="1" height="1" fill="#2d2433"/><rect x="16" y="23" width="1" height="1" fill="#2d2433"/><rect x="23" y="23" width="1" height="1" fill="#2d2433"/><rect x="25" y="23" width="1" height="1" fill="#2d2433"/><rect x="27" y="23" width="1" height="1" fill="#2d2433"/></g><g><rect x="19" y="19" width="2" height="1" fill="#2d2433"/><rect x="18" y="20" width="1" height="1" fill="#2d2433"/><rect x="21" y="20" width="1" height="1" fill="#2d2433"/></g><g class="open"><rect x="16" y="16" width="2" height="1" fill="#2d2433"/><rect x="22" y="16" width="2" height="1" fill="#2d2433"/><rect x="16" y="17" width="2" height="1" fill="#2d2433"/><rect x="22" y="17" width="2" height="1" fill="#2d2433"/><rect x="16" y="18" width="2" height="1" fill="#9ccff0"/><rect x="22" y="18" width="2" height="1" fill="#9ccff0"/></g><g class="shut"><rect x="16" y="17" width="2" height="1" fill="#2d2433"/><rect x="22" y="17" width="2" height="1" fill="#2d2433"/></g></g><g class="tw"><rect x="35" y="11" width="1" height="1" fill="#4c8bc2"/><rect x="34" y="12" width="1" height="1" fill="#4c8bc2"/><rect x="35" y="12" width="1" height="1" fill="#9ccff0"/><rect x="36" y="12" width="1" height="1" fill="#4c8bc2"/><rect x="34" y="13" width="1" height="1" fill="#4c8bc2"/><rect x="35" y="13" width="1" height="1" fill="#9ccff0"/><rect x="36" y="13" width="1" height="1" fill="#ffffff"/><rect x="35" y="14" width="1" height="1" fill="#4c8bc2"/></g></svg>
